<mxfile host="app.diagrams.net" modified="2024-03-19T01:39:53.238Z" agent="Mozilla/5.0 (X11; Linux x86_64) AppleWebKit/537.36 (KHTML, like Gecko) Chrome/122.0.0.0 Safari/537.36" etag="8y1xkJhfuP-DbbnnLAXq" version="24.0.7" type="device">
  <diagram name="Page-1" id="8mGGfwsUY2B6Y7zW4h-k">
    <mxGraphModel dx="1434" dy="1930" grid="1" gridSize="10" guides="1" tooltips="1" connect="1" arrows="1" fold="1" page="1" pageScale="1" pageWidth="850" pageHeight="1100" math="0" shadow="0">
      <root>
        <mxCell id="0" />
        <mxCell id="1" parent="0" />
        <mxCell id="hFWhTKhww-kmGkBQ5SQ--17" style="edgeStyle=orthogonalEdgeStyle;rounded=0;orthogonalLoop=1;jettySize=auto;html=1;" parent="1" source="hFWhTKhww-kmGkBQ5SQ--1" target="hFWhTKhww-kmGkBQ5SQ--3" edge="1">
          <mxGeometry relative="1" as="geometry" />
        </mxCell>
        <mxCell id="hFWhTKhww-kmGkBQ5SQ--1" value="Funcionário" style="shape=umlActor;verticalLabelPosition=bottom;verticalAlign=top;html=1;outlineConnect=0;" parent="1" vertex="1">
          <mxGeometry x="70" y="96.5" width="30" height="60" as="geometry" />
        </mxCell>
        <mxCell id="hFWhTKhww-kmGkBQ5SQ--3" value="API Gateway" style="outlineConnect=0;dashed=0;verticalLabelPosition=bottom;verticalAlign=top;align=center;html=1;shape=mxgraph.aws3.api_gateway;fillColor=#D9A741;gradientColor=none;" parent="1" vertex="1">
          <mxGeometry x="240" y="80" width="76.5" height="93" as="geometry" />
        </mxCell>
        <mxCell id="hFWhTKhww-kmGkBQ5SQ--6" value="Cognito&lt;div&gt;User Pool&lt;/div&gt;" style="outlineConnect=0;dashed=0;verticalLabelPosition=bottom;verticalAlign=top;align=center;html=1;shape=mxgraph.aws3.cognito;fillColor=#AD688B;gradientColor=none;" parent="1" vertex="1">
          <mxGeometry x="240" y="-140" width="76.5" height="93" as="geometry" />
        </mxCell>
        <mxCell id="hFWhTKhww-kmGkBQ5SQ--7" style="edgeStyle=orthogonalEdgeStyle;rounded=0;orthogonalLoop=1;jettySize=auto;html=1;entryX=0.5;entryY=1;entryDx=0;entryDy=0;entryPerimeter=0;" parent="1" source="hFWhTKhww-kmGkBQ5SQ--3" target="hFWhTKhww-kmGkBQ5SQ--6" edge="1">
          <mxGeometry relative="1" as="geometry" />
        </mxCell>
        <mxCell id="hFWhTKhww-kmGkBQ5SQ--10" value="" style="group" parent="1" vertex="1" connectable="0">
          <mxGeometry x="470" y="-50" width="290" height="320" as="geometry" />
        </mxCell>
        <mxCell id="hFWhTKhww-kmGkBQ5SQ--8" value="" style="rounded=0;whiteSpace=wrap;html=1;" parent="hFWhTKhww-kmGkBQ5SQ--10" vertex="1">
          <mxGeometry width="290" height="320" as="geometry" />
        </mxCell>
        <mxCell id="hFWhTKhww-kmGkBQ5SQ--9" value="VPC / Subnets / ECS / ECR / Fargate" style="text;html=1;align=center;verticalAlign=middle;whiteSpace=wrap;rounded=0;" parent="hFWhTKhww-kmGkBQ5SQ--10" vertex="1">
          <mxGeometry width="230" height="30" as="geometry" />
        </mxCell>
        <mxCell id="hFWhTKhww-kmGkBQ5SQ--11" value="ms-ponto&lt;div&gt;- bater ponto&lt;/div&gt;&lt;div&gt;- visualizar pontos do dia&lt;/div&gt;" style="rounded=0;whiteSpace=wrap;html=1;fillColor=#ffe6cc;strokeColor=#d79b00;" parent="hFWhTKhww-kmGkBQ5SQ--10" vertex="1">
          <mxGeometry x="50" y="70" width="180" height="70" as="geometry" />
        </mxCell>
        <mxCell id="hFWhTKhww-kmGkBQ5SQ--16" value="ms-ponto-adm&lt;div&gt;- solicitação relatório&lt;/div&gt;&lt;div&gt;- solicitação alteração de ponto&lt;/div&gt;" style="rounded=0;whiteSpace=wrap;html=1;fillColor=#ffe6cc;strokeColor=#d79b00;" parent="hFWhTKhww-kmGkBQ5SQ--10" vertex="1">
          <mxGeometry x="50" y="180" width="180" height="80" as="geometry" />
        </mxCell>
        <mxCell id="hFWhTKhww-kmGkBQ5SQ--18" value="Autenticação" style="text;html=1;align=center;verticalAlign=middle;whiteSpace=wrap;rounded=0;" parent="1" vertex="1">
          <mxGeometry x="200" y="10" width="60" height="30" as="geometry" />
        </mxCell>
        <mxCell id="hFWhTKhww-kmGkBQ5SQ--20" style="edgeStyle=orthogonalEdgeStyle;rounded=0;orthogonalLoop=1;jettySize=auto;html=1;entryX=0;entryY=0.5;entryDx=0;entryDy=0;" parent="1" source="hFWhTKhww-kmGkBQ5SQ--3" target="hFWhTKhww-kmGkBQ5SQ--11" edge="1">
          <mxGeometry relative="1" as="geometry" />
        </mxCell>
        <mxCell id="hFWhTKhww-kmGkBQ5SQ--22" value="DynamoDB&lt;div&gt;Pontos&lt;/div&gt;" style="outlineConnect=0;dashed=0;verticalLabelPosition=bottom;verticalAlign=top;align=center;html=1;shape=mxgraph.aws3.dynamo_db;fillColor=#2E73B8;gradientColor=none;" parent="1" vertex="1">
          <mxGeometry x="900" y="14.5" width="72" height="81" as="geometry" />
        </mxCell>
        <mxCell id="hFWhTKhww-kmGkBQ5SQ--23" style="edgeStyle=orthogonalEdgeStyle;rounded=0;orthogonalLoop=1;jettySize=auto;html=1;" parent="1" source="hFWhTKhww-kmGkBQ5SQ--11" target="hFWhTKhww-kmGkBQ5SQ--22" edge="1">
          <mxGeometry relative="1" as="geometry" />
        </mxCell>
        <mxCell id="hFWhTKhww-kmGkBQ5SQ--38" style="edgeStyle=orthogonalEdgeStyle;rounded=0;orthogonalLoop=1;jettySize=auto;html=1;" parent="1" source="hFWhTKhww-kmGkBQ5SQ--30" target="hFWhTKhww-kmGkBQ5SQ--37" edge="1">
          <mxGeometry relative="1" as="geometry" />
        </mxCell>
        <mxCell id="hFWhTKhww-kmGkBQ5SQ--30" value="s3&lt;div&gt;pontos-por-data-e-funcionario&lt;/div&gt;" style="outlineConnect=0;dashed=0;verticalLabelPosition=bottom;verticalAlign=top;align=center;html=1;shape=mxgraph.aws3.s3;fillColor=#E05243;gradientColor=none;" parent="1" vertex="1">
          <mxGeometry x="1237" y="333" width="76.5" height="93" as="geometry" />
        </mxCell>
        <mxCell id="hFWhTKhww-kmGkBQ5SQ--35" style="edgeStyle=orthogonalEdgeStyle;rounded=0;orthogonalLoop=1;jettySize=auto;html=1;" parent="1" source="hFWhTKhww-kmGkBQ5SQ--32" target="hFWhTKhww-kmGkBQ5SQ--22" edge="1">
          <mxGeometry relative="1" as="geometry" />
        </mxCell>
        <mxCell id="hFWhTKhww-kmGkBQ5SQ--36" style="edgeStyle=orthogonalEdgeStyle;rounded=0;orthogonalLoop=1;jettySize=auto;html=1;" parent="1" source="hFWhTKhww-kmGkBQ5SQ--32" target="hFWhTKhww-kmGkBQ5SQ--30" edge="1">
          <mxGeometry relative="1" as="geometry" />
        </mxCell>
        <mxCell id="hFWhTKhww-kmGkBQ5SQ--32" value="Glue Job&lt;div&gt;Lê snapshot do DynamoDB e joga para o S3&lt;/div&gt;" style="outlineConnect=0;dashed=0;verticalLabelPosition=bottom;verticalAlign=top;align=center;html=1;shape=mxgraph.aws3.glue;fillColor=#F58534;gradientColor=none;" parent="1" vertex="1">
          <mxGeometry x="894.75" y="330" width="82.5" height="99" as="geometry" />
        </mxCell>
        <mxCell id="hFWhTKhww-kmGkBQ5SQ--37" value="Glue Job&lt;div&gt;Lê os pontos do S3 (Glue Table) e gera o relatório mensal&lt;/div&gt;" style="outlineConnect=0;dashed=0;verticalLabelPosition=bottom;verticalAlign=top;align=center;html=1;shape=mxgraph.aws3.glue;fillColor=#F58534;gradientColor=none;" parent="1" vertex="1">
          <mxGeometry x="1580" y="330" width="82.5" height="99" as="geometry" />
        </mxCell>
        <mxCell id="hFWhTKhww-kmGkBQ5SQ--39" value="S3&lt;div&gt;Relatórios mensal&lt;/div&gt;" style="outlineConnect=0;dashed=0;verticalLabelPosition=bottom;verticalAlign=top;align=center;html=1;shape=mxgraph.aws3.s3;fillColor=#E05243;gradientColor=none;" parent="1" vertex="1">
          <mxGeometry x="1920" y="333" width="76.5" height="93" as="geometry" />
        </mxCell>
        <mxCell id="hFWhTKhww-kmGkBQ5SQ--40" style="edgeStyle=orthogonalEdgeStyle;rounded=0;orthogonalLoop=1;jettySize=auto;html=1;entryX=0;entryY=0.5;entryDx=0;entryDy=0;entryPerimeter=0;" parent="1" source="hFWhTKhww-kmGkBQ5SQ--37" target="hFWhTKhww-kmGkBQ5SQ--39" edge="1">
          <mxGeometry relative="1" as="geometry" />
        </mxCell>
        <mxCell id="hFWhTKhww-kmGkBQ5SQ--41" value="executado 1x/mês" style="points=[[0.145,0.145,0],[0.5,0,0],[0.855,0.145,0],[1,0.5,0],[0.855,0.855,0],[0.5,1,0],[0.145,0.855,0],[0,0.5,0]];shape=mxgraph.bpmn.event;html=1;verticalLabelPosition=bottom;labelBackgroundColor=#ffffff;verticalAlign=top;align=center;perimeter=ellipsePerimeter;outlineConnect=0;aspect=fixed;outline=catching;symbol=timer;" parent="1" vertex="1">
          <mxGeometry x="810" y="310" width="50" height="50" as="geometry" />
        </mxCell>
        <mxCell id="hFWhTKhww-kmGkBQ5SQ--46" style="edgeStyle=orthogonalEdgeStyle;rounded=0;orthogonalLoop=1;jettySize=auto;html=1;" parent="1" source="hFWhTKhww-kmGkBQ5SQ--42" target="hFWhTKhww-kmGkBQ5SQ--45" edge="1">
          <mxGeometry relative="1" as="geometry" />
        </mxCell>
        <mxCell id="hFWhTKhww-kmGkBQ5SQ--42" value="Glue Job&lt;div&gt;Lê os pontos do S3 (Glue Table) e gera o relatório p/ gerentes&lt;/div&gt;" style="outlineConnect=0;dashed=0;verticalLabelPosition=bottom;verticalAlign=top;align=center;html=1;shape=mxgraph.aws3.glue;fillColor=#F58534;gradientColor=none;" parent="1" vertex="1">
          <mxGeometry x="1590" y="570" width="82.5" height="99" as="geometry" />
        </mxCell>
        <mxCell id="hFWhTKhww-kmGkBQ5SQ--43" value="Append-only&lt;div&gt;Apenas são escritos novos registros. Nenhum é alterado ou removido.&lt;/div&gt;" style="rounded=0;whiteSpace=wrap;html=1;" parent="1" vertex="1">
          <mxGeometry x="990" y="-70" width="170" height="100" as="geometry" />
        </mxCell>
        <mxCell id="hFWhTKhww-kmGkBQ5SQ--44" style="edgeStyle=orthogonalEdgeStyle;rounded=0;orthogonalLoop=1;jettySize=auto;html=1;entryX=0;entryY=0.5;entryDx=0;entryDy=0;entryPerimeter=0;" parent="1" source="hFWhTKhww-kmGkBQ5SQ--30" target="hFWhTKhww-kmGkBQ5SQ--42" edge="1">
          <mxGeometry relative="1" as="geometry">
            <Array as="points">
              <mxPoint x="1275" y="620" />
            </Array>
          </mxGeometry>
        </mxCell>
        <mxCell id="hFWhTKhww-kmGkBQ5SQ--45" value="S3&lt;div&gt;Relatórios p/ gerente&lt;/div&gt;" style="outlineConnect=0;dashed=0;verticalLabelPosition=bottom;verticalAlign=top;align=center;html=1;shape=mxgraph.aws3.s3;fillColor=#E05243;gradientColor=none;" parent="1" vertex="1">
          <mxGeometry x="1920" y="573" width="76.5" height="93" as="geometry" />
        </mxCell>
        <mxCell id="hFWhTKhww-kmGkBQ5SQ--47" style="edgeStyle=orthogonalEdgeStyle;rounded=0;orthogonalLoop=1;jettySize=auto;html=1;" parent="1" source="hFWhTKhww-kmGkBQ5SQ--16" target="hFWhTKhww-kmGkBQ5SQ--39" edge="1">
          <mxGeometry relative="1" as="geometry" />
        </mxCell>
      </root>
    </mxGraphModel>
  </diagram>
</mxfile>
